<mxfile host="app.diagrams.net" modified="2022-08-22T10:44:03.105Z" agent="5.0 (Windows NT 10.0; Win64; x64) AppleWebKit/537.36 (KHTML, like Gecko) Chrome/104.0.0.0 Safari/537.36" etag="MqgLG08EAf1tqqKpr9dL" version="20.1.1" type="github">
  <diagram id="kgpKYQtTHZ0yAKxKKP6v" name="Page-1">
    <mxGraphModel dx="2216" dy="1016" grid="1" gridSize="10" guides="1" tooltips="1" connect="1" arrows="1" fold="1" page="1" pageScale="1" pageWidth="850" pageHeight="1100" math="0" shadow="0">
      <root>
        <mxCell id="0" />
        <mxCell id="1" parent="0" />
        <mxCell id="wjSkXyHSexyZW-pBmQX7-2" value="카카오 비즈보드 이미지 생성 Flow" style="verticalAlign=top;align=left;spacingTop=8;spacingLeft=2;spacingRight=12;shape=cube;size=10;direction=south;fontStyle=4;html=1;" parent="1" vertex="1">
          <mxGeometry x="86" y="149" width="1624" height="1400" as="geometry" />
        </mxCell>
        <mxCell id="wjSkXyHSexyZW-pBmQX7-20" value="광고주 플랫폼팀&#xa;배치 서버" style="shape=umlLifeline;perimeter=lifelinePerimeter;container=1;collapsible=0;recursiveResize=0;rounded=0;shadow=0;strokeWidth=1;" parent="1" vertex="1">
          <mxGeometry x="174" y="102" width="225" height="1280" as="geometry" />
        </mxCell>
        <mxCell id="wjSkXyHSexyZW-pBmQX7-4" value="" style="points=[];perimeter=orthogonalPerimeter;rounded=0;shadow=0;strokeWidth=1;" parent="1" vertex="1">
          <mxGeometry x="281.5" y="242" width="10" height="1120" as="geometry" />
        </mxCell>
        <mxCell id="wjSkXyHSexyZW-pBmQX7-5" value="일자별 배치 Start" style="verticalAlign=bottom;startArrow=oval;endArrow=block;startSize=8;shadow=0;strokeWidth=1;" parent="1" target="wjSkXyHSexyZW-pBmQX7-4" edge="1">
          <mxGeometry x="-1" y="22" relative="1" as="geometry">
            <mxPoint x="194" y="242" as="sourcePoint" />
            <mxPoint x="-20" y="12" as="offset" />
          </mxGeometry>
        </mxCell>
        <mxCell id="wjSkXyHSexyZW-pBmQX7-6" value="" style="points=[];perimeter=orthogonalPerimeter;rounded=0;shadow=0;strokeWidth=1;" parent="1" vertex="1">
          <mxGeometry x="289" y="251" width="10" height="59" as="geometry" />
        </mxCell>
        <mxCell id="wjSkXyHSexyZW-pBmQX7-19" value="" style="edgeStyle=elbowEdgeStyle;elbow=horizontal;endArrow=classic;html=1;rounded=0;exitX=1.032;exitY=0.003;exitDx=0;exitDy=0;exitPerimeter=0;entryX=0.93;entryY=0.017;entryDx=0;entryDy=0;entryPerimeter=0;" parent="1" source="wjSkXyHSexyZW-pBmQX7-4" target="wjSkXyHSexyZW-pBmQX7-6" edge="1">
          <mxGeometry width="50" height="50" relative="1" as="geometry">
            <mxPoint x="291.22999999999996" y="252.36" as="sourcePoint" />
            <mxPoint x="301" y="272.802" as="targetPoint" />
            <Array as="points">
              <mxPoint x="320" y="250" />
              <mxPoint x="310" y="250" />
            </Array>
          </mxGeometry>
        </mxCell>
        <mxCell id="wjSkXyHSexyZW-pBmQX7-10" value="배치 DB" style="shape=umlLifeline;perimeter=lifelinePerimeter;container=1;collapsible=0;recursiveResize=0;rounded=0;shadow=0;strokeWidth=1;" parent="1" vertex="1">
          <mxGeometry x="425" y="102" width="225" height="1280" as="geometry" />
        </mxCell>
        <mxCell id="wjSkXyHSexyZW-pBmQX7-12" value="" style="points=[];perimeter=orthogonalPerimeter;rounded=0;shadow=0;strokeWidth=1;" parent="wjSkXyHSexyZW-pBmQX7-10" vertex="1">
          <mxGeometry x="107.5" y="227.5" width="10" height="32.5" as="geometry" />
        </mxCell>
        <mxCell id="wjSkXyHSexyZW-pBmQX7-26" value="카카오 이벤트 라이브 ON &lt;br&gt;광고주 리스트 조회" style="text;html=1;strokeColor=none;fillColor=none;align=center;verticalAlign=middle;whiteSpace=wrap;rounded=0;" parent="1" vertex="1">
          <mxGeometry x="299" y="270" width="161" height="30" as="geometry" />
        </mxCell>
        <mxCell id="wjSkXyHSexyZW-pBmQX7-13" value="배치 실행일 한달 이상 지난 광고주 조회" style="verticalAlign=bottom;endArrow=block;shadow=0;strokeWidth=1;entryX=-0.017;entryY=0.001;entryDx=0;entryDy=0;entryPerimeter=0;" parent="1" source="wjSkXyHSexyZW-pBmQX7-4" target="wjSkXyHSexyZW-pBmQX7-12" edge="1">
          <mxGeometry relative="1" as="geometry">
            <mxPoint x="712.5" y="372" as="sourcePoint" />
            <mxPoint x="530" y="370" as="targetPoint" />
          </mxGeometry>
        </mxCell>
        <mxCell id="wjSkXyHSexyZW-pBmQX7-27" value="return 광고주 리스트" style="verticalAlign=bottom;endArrow=open;dashed=1;endSize=8;shadow=0;strokeWidth=1;exitX=0.031;exitY=0.998;exitDx=0;exitDy=0;exitPerimeter=0;entryX=0.994;entryY=0.107;entryDx=0;entryDy=0;entryPerimeter=0;" parent="1" target="wjSkXyHSexyZW-pBmQX7-4" edge="1">
          <mxGeometry relative="1" as="geometry">
            <mxPoint x="292.0000000000001" y="360.7199999999999" as="targetPoint" />
            <mxPoint x="532.8100000000001" y="361.93500000000006" as="sourcePoint" />
          </mxGeometry>
        </mxCell>
        <mxCell id="wjSkXyHSexyZW-pBmQX7-28" value="" style="points=[];perimeter=orthogonalPerimeter;rounded=0;shadow=0;strokeWidth=1;" parent="1" vertex="1">
          <mxGeometry x="289" y="390" width="10" height="500" as="geometry" />
        </mxCell>
        <mxCell id="wjSkXyHSexyZW-pBmQX7-29" value="" style="edgeStyle=elbowEdgeStyle;elbow=horizontal;endArrow=classic;html=1;rounded=0;exitX=1.025;exitY=0.119;exitDx=0;exitDy=0;exitPerimeter=0;entryX=1.01;entryY=-0.004;entryDx=0;entryDy=0;entryPerimeter=0;" parent="1" source="wjSkXyHSexyZW-pBmQX7-4" target="wjSkXyHSexyZW-pBmQX7-28" edge="1">
          <mxGeometry width="50" height="50" relative="1" as="geometry">
            <mxPoint x="291.50000000000006" y="375.56" as="sourcePoint" />
            <mxPoint x="300.1799999999999" y="390" as="targetPoint" />
            <Array as="points">
              <mxPoint x="319.68" y="380.2" />
              <mxPoint x="309.68" y="380.2" />
            </Array>
          </mxGeometry>
        </mxCell>
        <mxCell id="wjSkXyHSexyZW-pBmQX7-30" value="카카오 이벤트 라이브 ON &lt;br&gt;광고주, 배치 조회 결과 광고주&lt;br&gt;교집합 필터링" style="text;html=1;strokeColor=none;fillColor=none;align=center;verticalAlign=middle;whiteSpace=wrap;rounded=0;" parent="1" vertex="1">
          <mxGeometry x="299" y="402" width="231" height="30" as="geometry" />
        </mxCell>
        <mxCell id="wjSkXyHSexyZW-pBmQX7-31" value="추천 레디스 서버" style="shape=umlLifeline;perimeter=lifelinePerimeter;container=1;collapsible=0;recursiveResize=0;rounded=0;shadow=0;strokeWidth=1;" parent="1" vertex="1">
          <mxGeometry x="680" y="102" width="225" height="1280" as="geometry" />
        </mxCell>
        <mxCell id="wjSkXyHSexyZW-pBmQX7-36" value="" style="points=[];perimeter=orthogonalPerimeter;rounded=0;shadow=0;strokeWidth=1;" parent="wjSkXyHSexyZW-pBmQX7-31" vertex="1">
          <mxGeometry x="107.5" y="410" width="10" height="32.5" as="geometry" />
        </mxCell>
        <mxCell id="wjSkXyHSexyZW-pBmQX7-37" value="광고주 전환탑(VT) PCODE 5개 조회 &#xa;Param : userId" style="verticalAlign=bottom;endArrow=block;shadow=0;strokeWidth=1;entryX=0.038;entryY=0.031;entryDx=0;entryDy=0;entryPerimeter=0;exitX=1.067;exitY=0.456;exitDx=0;exitDy=0;exitPerimeter=0;" parent="1" target="wjSkXyHSexyZW-pBmQX7-36" edge="1">
          <mxGeometry relative="1" as="geometry">
            <mxPoint x="299.6700000000001" y="512.0800000000002" as="sourcePoint" />
            <mxPoint x="786.8900000000001" y="521.6750000000001" as="targetPoint" />
          </mxGeometry>
        </mxCell>
        <mxCell id="wjSkXyHSexyZW-pBmQX7-38" value="return PCODE 5개" style="verticalAlign=bottom;endArrow=open;dashed=1;endSize=8;shadow=0;strokeWidth=1;exitX=-0.089;exitY=0.971;exitDx=0;exitDy=0;exitPerimeter=0;entryX=0.952;entryY=0.621;entryDx=0;entryDy=0;entryPerimeter=0;" parent="1" source="wjSkXyHSexyZW-pBmQX7-36" edge="1">
          <mxGeometry relative="1" as="geometry">
            <mxPoint x="298.52000000000044" y="541.78" as="targetPoint" />
            <mxPoint x="731.3699999999999" y="550.0950000000001" as="sourcePoint" />
          </mxGeometry>
        </mxCell>
        <mxCell id="wjSkXyHSexyZW-pBmQX7-39" value="웹서비스개발팀 광고주 파트 서버" style="shape=umlLifeline;perimeter=lifelinePerimeter;container=1;collapsible=0;recursiveResize=0;rounded=0;shadow=0;strokeWidth=1;" parent="1" vertex="1">
          <mxGeometry x="940" y="102" width="225" height="1280" as="geometry" />
        </mxCell>
        <mxCell id="wjSkXyHSexyZW-pBmQX7-40" value="" style="points=[];perimeter=orthogonalPerimeter;rounded=0;shadow=0;strokeWidth=1;" parent="wjSkXyHSexyZW-pBmQX7-39" vertex="1">
          <mxGeometry x="107.5" y="491" width="10" height="32.5" as="geometry" />
        </mxCell>
        <mxCell id="W_5MUlFWXfUlgrD-ECE_-10" value="" style="points=[];perimeter=orthogonalPerimeter;rounded=0;shadow=0;strokeWidth=1;" vertex="1" parent="wjSkXyHSexyZW-pBmQX7-39">
          <mxGeometry x="107.5" y="708" width="10" height="62" as="geometry" />
        </mxCell>
        <mxCell id="wjSkXyHSexyZW-pBmQX7-42" value="&lt;font style=&quot;font-size: 18px;&quot;&gt;&lt;b&gt;for userId in List&lt;/b&gt;&lt;/font&gt;" style="text;html=1;strokeColor=none;fillColor=none;align=center;verticalAlign=middle;whiteSpace=wrap;rounded=0;" parent="1" vertex="1">
          <mxGeometry x="299" y="463" width="211" height="30" as="geometry" />
        </mxCell>
        <mxCell id="wjSkXyHSexyZW-pBmQX7-43" value="광고주 카피 소재 조회 &#xa;Param : userId" style="verticalAlign=bottom;endArrow=block;shadow=0;strokeWidth=1;entryX=-0.031;entryY=0.006;entryDx=0;entryDy=0;entryPerimeter=0;exitX=0.959;exitY=0.404;exitDx=0;exitDy=0;exitPerimeter=0;" parent="1" source="wjSkXyHSexyZW-pBmQX7-28" target="wjSkXyHSexyZW-pBmQX7-40" edge="1">
          <mxGeometry relative="1" as="geometry">
            <mxPoint x="299" y="592" as="sourcePoint" />
            <mxPoint x="1047.8899999999999" y="597.0325" as="targetPoint" />
          </mxGeometry>
        </mxCell>
        <mxCell id="wjSkXyHSexyZW-pBmQX7-44" value="return 카피 소재" style="verticalAlign=bottom;endArrow=open;dashed=1;endSize=8;shadow=0;strokeWidth=1;exitX=-0.046;exitY=0.995;exitDx=0;exitDy=0;exitPerimeter=0;entryX=0.978;entryY=0.464;entryDx=0;entryDy=0;entryPerimeter=0;" parent="1" source="wjSkXyHSexyZW-pBmQX7-40" target="wjSkXyHSexyZW-pBmQX7-28" edge="1">
          <mxGeometry relative="1" as="geometry">
            <mxPoint x="380.00000000000045" y="625.5" as="targetPoint" />
            <mxPoint x="868.0900000000001" y="627.2774999999999" as="sourcePoint" />
          </mxGeometry>
        </mxCell>
        <mxCell id="wjSkXyHSexyZW-pBmQX7-45" value="연구분석실 서버" style="shape=umlLifeline;perimeter=lifelinePerimeter;container=1;collapsible=0;recursiveResize=0;rounded=0;shadow=0;strokeWidth=1;" parent="1" vertex="1">
          <mxGeometry x="1200" y="102" width="225" height="1280" as="geometry" />
        </mxCell>
        <mxCell id="wjSkXyHSexyZW-pBmQX7-46" value="" style="points=[];perimeter=orthogonalPerimeter;rounded=0;shadow=0;strokeWidth=1;" parent="wjSkXyHSexyZW-pBmQX7-45" vertex="1">
          <mxGeometry x="107.5" y="574" width="10" height="96" as="geometry" />
        </mxCell>
        <mxCell id="W_5MUlFWXfUlgrD-ECE_-5" value="" style="points=[];perimeter=orthogonalPerimeter;rounded=0;shadow=0;strokeWidth=1;" vertex="1" parent="wjSkXyHSexyZW-pBmQX7-45">
          <mxGeometry x="117.5" y="623.75" width="10" height="32.5" as="geometry" />
        </mxCell>
        <mxCell id="W_5MUlFWXfUlgrD-ECE_-6" value="" style="edgeStyle=elbowEdgeStyle;elbow=horizontal;endArrow=classic;html=1;rounded=0;exitX=0.982;exitY=0.382;exitDx=0;exitDy=0;exitPerimeter=0;entryX=0.966;entryY=0.009;entryDx=0;entryDy=0;entryPerimeter=0;" edge="1" parent="wjSkXyHSexyZW-pBmQX7-45" source="wjSkXyHSexyZW-pBmQX7-46" target="W_5MUlFWXfUlgrD-ECE_-5">
          <mxGeometry width="50" height="50" relative="1" as="geometry">
            <mxPoint x="117.5" y="611.03" as="sourcePoint" />
            <mxPoint x="124.84999999999991" y="623.75" as="targetPoint" />
            <Array as="points">
              <mxPoint x="145.43000000000006" y="615.95" />
              <mxPoint x="135.43000000000006" y="615.95" />
            </Array>
          </mxGeometry>
        </mxCell>
        <mxCell id="wjSkXyHSexyZW-pBmQX7-50" value="비즈보드 이미지 생성 요청 &#xa;Param : userId, pcode List, 카피 소재" style="verticalAlign=bottom;endArrow=block;shadow=0;strokeWidth=1;entryX=-0.05;entryY=0;entryDx=0;entryDy=0;entryPerimeter=0;exitX=0.96;exitY=0.56;exitDx=0;exitDy=0;exitPerimeter=0;" parent="1" source="wjSkXyHSexyZW-pBmQX7-28" target="wjSkXyHSexyZW-pBmQX7-46" edge="1">
          <mxGeometry relative="1" as="geometry">
            <mxPoint x="308.8999999999997" y="670" as="sourcePoint" />
            <mxPoint x="1057.5" y="671.1949999999997" as="targetPoint" />
          </mxGeometry>
        </mxCell>
        <mxCell id="wjSkXyHSexyZW-pBmQX7-51" value="return userId, pcode List, image info List" style="verticalAlign=bottom;endArrow=open;dashed=1;endSize=8;shadow=0;strokeWidth=1;exitX=-0.033;exitY=0.997;exitDx=0;exitDy=0;exitPerimeter=0;" parent="1" source="wjSkXyHSexyZW-pBmQX7-46" target="wjSkXyHSexyZW-pBmQX7-28" edge="1">
          <mxGeometry relative="1" as="geometry">
            <mxPoint x="300" y="760" as="targetPoint" />
            <mxPoint x="1078.26" y="713.3375000000001" as="sourcePoint" />
          </mxGeometry>
        </mxCell>
        <mxCell id="W_5MUlFWXfUlgrD-ECE_-1" value="비전연구실 서비스" style="shape=umlLifeline;perimeter=lifelinePerimeter;container=1;collapsible=0;recursiveResize=0;rounded=0;shadow=0;strokeWidth=1;" vertex="1" parent="1">
          <mxGeometry x="1460" y="102" width="225" height="1280" as="geometry" />
        </mxCell>
        <mxCell id="W_5MUlFWXfUlgrD-ECE_-2" value="" style="points=[];perimeter=orthogonalPerimeter;rounded=0;shadow=0;strokeWidth=1;" vertex="1" parent="W_5MUlFWXfUlgrD-ECE_-1">
          <mxGeometry x="107.5" y="579" width="10" height="21" as="geometry" />
        </mxCell>
        <mxCell id="W_5MUlFWXfUlgrD-ECE_-3" value="이미지 생성 요청" style="verticalAlign=bottom;endArrow=block;shadow=0;strokeWidth=1;entryX=-0.05;entryY=-0.019;entryDx=0;entryDy=0;entryPerimeter=0;exitX=0.994;exitY=0.059;exitDx=0;exitDy=0;exitPerimeter=0;" edge="1" parent="1" source="wjSkXyHSexyZW-pBmQX7-46" target="W_5MUlFWXfUlgrD-ECE_-2">
          <mxGeometry relative="1" as="geometry">
            <mxPoint x="1320" y="680" as="sourcePoint" />
            <mxPoint x="1685" y="712.9274999999999" as="targetPoint" />
          </mxGeometry>
        </mxCell>
        <mxCell id="W_5MUlFWXfUlgrD-ECE_-4" value="return 생성된 이미지" style="verticalAlign=bottom;endArrow=open;dashed=1;endSize=8;shadow=0;strokeWidth=1;exitX=0.022;exitY=1.021;exitDx=0;exitDy=0;exitPerimeter=0;entryX=1.015;entryY=0.257;entryDx=0;entryDy=0;entryPerimeter=0;" edge="1" parent="1" source="W_5MUlFWXfUlgrD-ECE_-2" target="wjSkXyHSexyZW-pBmQX7-46">
          <mxGeometry relative="1" as="geometry">
            <mxPoint x="739.9999999999998" y="750" as="targetPoint" />
            <mxPoint x="1746.95" y="752.392" as="sourcePoint" />
          </mxGeometry>
        </mxCell>
        <mxCell id="W_5MUlFWXfUlgrD-ECE_-7" value="&lt;span style=&quot;font-size: 11px; background-color: rgb(255, 255, 255);&quot;&gt;이미지 저장&lt;/span&gt;" style="text;html=1;strokeColor=none;fillColor=none;align=center;verticalAlign=middle;whiteSpace=wrap;rounded=0;fontSize=18;" vertex="1" parent="1">
          <mxGeometry x="1325" y="727" width="100" height="30" as="geometry" />
        </mxCell>
        <mxCell id="W_5MUlFWXfUlgrD-ECE_-11" value="비즈보드용 일반 소재 그룹 등록 or 갱신 요청" style="verticalAlign=bottom;endArrow=block;shadow=0;strokeWidth=1;entryX=-0.03;entryY=-0.005;entryDx=0;entryDy=0;entryPerimeter=0;exitX=1.1;exitY=0.84;exitDx=0;exitDy=0;exitPerimeter=0;" edge="1" parent="1" source="wjSkXyHSexyZW-pBmQX7-28" target="W_5MUlFWXfUlgrD-ECE_-10">
          <mxGeometry relative="1" as="geometry">
            <mxPoint x="308.5899999999999" y="602.0000000000002" as="sourcePoint" />
            <mxPoint x="1057.1899999999996" y="603.1950000000002" as="targetPoint" />
          </mxGeometry>
        </mxCell>
        <mxCell id="W_5MUlFWXfUlgrD-ECE_-12" value="return" style="verticalAlign=bottom;endArrow=open;dashed=1;endSize=8;shadow=0;strokeWidth=1;exitX=-0.04;exitY=0.948;exitDx=0;exitDy=0;exitPerimeter=0;entryX=0.912;entryY=0.956;entryDx=0;entryDy=0;entryPerimeter=0;" edge="1" parent="1" source="W_5MUlFWXfUlgrD-ECE_-10" target="wjSkXyHSexyZW-pBmQX7-28">
          <mxGeometry relative="1" as="geometry">
            <mxPoint x="300" y="860" as="targetPoint" />
            <mxPoint x="1057.0400000000002" y="635.3375" as="sourcePoint" />
          </mxGeometry>
        </mxCell>
        <mxCell id="W_5MUlFWXfUlgrD-ECE_-13" value="&lt;div style=&quot;text-align: left;&quot;&gt;&lt;ol&gt;&lt;li&gt;&lt;span style=&quot;background-color: rgb(255, 255, 255);&quot;&gt;&lt;font style=&quot;font-size: 12px;&quot;&gt;광고주 비즈보드 소재 그룹 존재시 해당 그룹에 속한 소재 전체 삭제&amp;nbsp;&lt;/font&gt;&lt;/span&gt;&lt;/li&gt;&lt;li&gt;&lt;font size=&quot;3&quot;&gt;API로 넘어온 소재 전체 등록&lt;/font&gt;&lt;/li&gt;&lt;li&gt;&lt;font size=&quot;3&quot;&gt;이미지 검수 테이블 등록&lt;/font&gt;&lt;/li&gt;&lt;/ol&gt;&lt;/div&gt;" style="text;html=1;strokeColor=none;fillColor=none;align=center;verticalAlign=middle;whiteSpace=wrap;rounded=0;fontSize=18;" vertex="1" parent="1">
          <mxGeometry x="1061" y="832" width="220" height="30" as="geometry" />
        </mxCell>
        <mxCell id="W_5MUlFWXfUlgrD-ECE_-14" value="&lt;h1&gt;&lt;font style=&quot;font-size: 24px;&quot;&gt;정책서&amp;nbsp;&lt;/font&gt;&lt;/h1&gt;&lt;p&gt;&lt;/p&gt;&lt;ol&gt;&lt;li&gt;&lt;font size=&quot;3&quot; style=&quot;&quot;&gt;카카오 이벤트 라이브(ON) 여부는 광고주의 요청에 따라 시시각각 변하기 때문에 광고주 파트에서&amp;nbsp;&lt;br&gt;일자별 배치를 만들어, 카카오 이벤트 라이브(ON) 광고주 리스트를 조회하여 배치 히스토리 테이블에&lt;br&gt;광고주별 최종 배치 실행일 및 종료 코드(성공 or 실패) 를 조회하여 한달 내에 배치 성공 히스토리가&lt;br&gt;없는 경우 이미지 생성 요청을 한다.&lt;/font&gt;&lt;/li&gt;&lt;li&gt;&lt;font size=&quot;3&quot;&gt;비즈보드 서비스용 이미지의 경우, 카카오 소속 어드민이 모비센스 이미지 검수 페이지에 들어와&amp;nbsp;&lt;br&gt;직접 승인/반려 처리를 하기 때문에 광고주별 전환탑 상품 5개를 한달 주기로 전체를 교체한다.&amp;nbsp;&lt;br&gt;&amp;nbsp; - 생성된 이미지 5개의 이미지 이름을 동일하게 유지하여 이슈 최소화&amp;nbsp;&lt;br&gt;&amp;nbsp; - 전환탑 상품의 랭킹 변경에 따른 생성된 이미지 및 소재 그룹의 히스토리 관리 이슈 최소화&lt;/font&gt;&lt;/li&gt;&lt;/ol&gt;&lt;p&gt;&lt;/p&gt;" style="text;html=1;strokeColor=none;fillColor=none;spacing=5;spacingTop=-20;whiteSpace=wrap;overflow=hidden;rounded=0;fontSize=12;" vertex="1" parent="1">
          <mxGeometry x="86" y="1610" width="1604" height="400" as="geometry" />
        </mxCell>
      </root>
    </mxGraphModel>
  </diagram>
</mxfile>
